<svg width="60" height="60" viewBox="0 0 60 60" fill="none" xmlns="http://www.w3.org/2000/svg">
<path d="M19.2161 25.2533C19.6604 24.809 20.0129 24.2817 20.2534 23.7012C20.4939 23.1208 20.6177 22.4987 20.6177 21.8704C20.6177 21.2421 20.4939 20.62 20.2534 20.0395C20.0129 19.4591 19.6604 18.9317 19.2161 18.4875L14.1388 13.4151C13.2418 12.5184 12.0255 12.0146 10.7572 12.0146C9.48885 12.0146 8.27245 12.5184 7.3755 13.4151L4.59173 16.1988C3.42608 17.3689 2.69985 18.9054 2.53558 20.5488C2.37132 22.1923 2.77913 23.8421 3.69013 25.2198C11.8811 37.5488 22.4511 48.1188 34.7803 56.3098C36.159 57.2216 37.81 57.6291 39.4545 57.4641C41.099 57.2988 42.636 56.5711 43.806 55.4036L46.592 52.6196C47.4888 51.7228 47.9925 50.5063 47.9925 49.2381C47.9925 47.9698 47.4888 46.7533 46.592 45.8563L41.5148 40.7888C40.618 39.8921 39.4015 39.3883 38.1333 39.3883C36.865 39.3883 35.6485 39.8921 34.7515 40.7888L33.0608 42.4796C27.3873 37.8141 22.1811 32.6078 17.5157 26.9346L19.2161 25.2533Z" fill="#C2F3FF"/>
<path d="M38.1523 52.9428C25.823 44.7518 15.2532 34.1818 7.0622 21.8526C6.19428 20.5395 5.78405 18.9766 5.8952 17.4064C6.00633 15.8363 6.6326 14.3467 7.67683 13.1689C7.57878 13.2526 7.47115 13.3196 7.3755 13.4081L4.59173 16.199C3.42608 17.3691 2.69985 18.9056 2.53558 20.549C2.37132 22.1925 2.77913 23.8423 3.69013 25.22C11.8811 37.549 22.4511 48.119 34.7803 56.31C36.159 57.2218 37.81 57.6293 39.4545 57.4643C41.099 57.299 42.636 56.5713 43.806 55.4038L46.592 52.6198C46.6878 52.5243 46.757 52.4143 46.8313 52.3138C45.6553 53.3588 44.1675 53.9865 42.5985 54.1003C41.0295 54.214 39.4668 53.8073 38.1523 52.9428Z" fill="#66E1FF"/>
<path d="M19.2161 25.2533C19.6604 24.809 20.0129 24.2817 20.2534 23.7012C20.4939 23.1208 20.6177 22.4987 20.6177 21.8704C20.6177 21.2421 20.4939 20.62 20.2534 20.0395C20.0129 19.4591 19.6604 18.9317 19.2161 18.4875L14.1388 13.4151C13.2418 12.5184 12.0255 12.0146 10.7572 12.0146C9.48885 12.0146 8.27245 12.5184 7.3755 13.4151L4.59173 16.1988C3.42608 17.3689 2.69985 18.9054 2.53558 20.5488C2.37132 22.1923 2.77913 23.8421 3.69013 25.2198C11.8811 37.5488 22.4511 48.1188 34.7803 56.3098C36.159 57.2216 37.81 57.6291 39.4545 57.4641C41.099 57.2988 42.636 56.5711 43.806 55.4036L46.592 52.6196C47.4888 51.7228 47.9925 50.5063 47.9925 49.2381C47.9925 47.9698 47.4888 46.7533 46.592 45.8563L41.5148 40.7888C40.618 39.8921 39.4015 39.3883 38.1333 39.3883C36.865 39.3883 35.6485 39.8921 34.7515 40.7888L33.0608 42.4796C27.3873 37.8141 22.1811 32.6078 17.5157 26.9346L19.2161 25.2533Z" stroke="#191919" stroke-linecap="round" stroke-linejoin="round"/>
<path d="M57.5006 10.8704C57.5006 10.5533 57.3746 10.2491 57.1503 10.0249C56.9261 9.80063 56.6218 9.67465 56.3048 9.67465H50.3258V3.69578C50.3258 3.37862 50.1998 3.07447 49.9756 2.85022C49.7513 2.62597 49.4473 2.5 49.1301 2.5H44.3471C44.0298 2.5 43.7258 2.62597 43.5016 2.85022C43.2773 3.07447 43.1513 3.37862 43.1513 3.69578V9.67465H37.1723C36.8553 9.67465 36.5511 9.80063 36.3268 10.0249C36.1026 10.2491 35.9766 10.5533 35.9766 10.8704V15.6535C35.9766 15.9707 36.1026 16.2748 36.3268 16.4991C36.5511 16.7233 36.8553 16.8493 37.1723 16.8493H43.1513V22.8281C43.1513 23.1453 43.2773 23.4494 43.5016 23.6737C43.7258 23.8979 44.0298 24.0239 44.3471 24.0239H49.1301C49.4473 24.0239 49.7513 23.8979 49.9756 23.6737C50.1998 23.4494 50.3258 23.1453 50.3258 22.8281V16.8493H56.3048C56.6218 16.8493 56.9261 16.7233 57.1503 16.4991C57.3746 16.2748 57.5006 15.9707 57.5006 15.6535V10.8704Z" fill="#FF808C"/>
<path d="M49.1301 2.5H44.3471C44.0298 2.5 43.7258 2.62597 43.5016 2.85022C43.2773 3.07447 43.1513 3.37862 43.1513 3.69578V9.67465H37.1723C36.8553 9.67465 36.5511 9.80063 36.3268 10.0249C36.1026 10.2491 35.9766 10.5533 35.9766 10.8704V15.6535C35.9766 15.9707 36.1026 16.2748 36.3268 16.4991C36.5511 16.7233 36.8553 16.8493 37.1723 16.8493H43.0246L50.3258 9.5479V3.69578C50.3258 3.37862 50.1998 3.07447 49.9756 2.85022C49.7513 2.62597 49.4473 2.5 49.1301 2.5Z" fill="#FFBFC5"/>
<path d="M57.5006 10.8704C57.5006 10.5533 57.3746 10.2491 57.1503 10.0249C56.9261 9.80063 56.6218 9.67465 56.3048 9.67465H50.3258V3.69577C50.3258 3.37862 50.1998 3.07447 49.9756 2.85022C49.7513 2.62597 49.4473 2.5 49.1301 2.5H44.3471C44.0298 2.5 43.7258 2.62597 43.5016 2.85022C43.2773 3.07447 43.1513 3.37862 43.1513 3.69577V9.67465H37.1723C36.8553 9.67465 36.5511 9.80063 36.3268 10.0249C36.1026 10.2491 35.9766 10.5533 35.9766 10.8704V15.6535C35.9766 15.9707 36.1026 16.2748 36.3268 16.499C36.5511 16.7233 36.8553 16.8493 37.1723 16.8493H43.1513V22.8281C43.1513 23.1453 43.2773 23.4494 43.5016 23.6737C43.7258 23.8979 44.0298 24.0239 44.3471 24.0239H49.1301C49.4473 24.0239 49.7513 23.8979 49.9756 23.6737C50.1998 23.4494 50.3258 23.1453 50.3258 22.8281V16.8493H56.3048C56.6218 16.8493 56.9261 16.7233 57.1503 16.499C57.3746 16.2748 57.5006 15.9707 57.5006 15.6535V10.8704Z" stroke="#191919" stroke-linecap="round" stroke-linejoin="round"/>
</svg>
