<svg width="60" height="60" viewBox="0 0 60 60" fill="none" xmlns="http://www.w3.org/2000/svg">
<path d="M40.5605 2.5H5.04939C3.74179 2.5 2.68188 3.5599 2.68188 4.86748V42.306C2.68188 43.6135 3.74179 44.6735 5.04939 44.6735H40.5605C41.8683 44.6732 42.928 43.6132 42.928 42.306V4.86748C42.928 3.56013 41.8683 2.50022 40.5605 2.5Z" fill="#E3E3E3"/>
<path d="M40.8432 3.06858C40.8077 3.06858 40.7792 3.0498 40.7437 3.0498H5.23247C3.92487 3.0498 2.86499 4.10968 2.86499 5.41706V41.0469L40.8432 3.06858Z" fill="white"/>
<path d="M27.723 45.6634H5.23246C3.92486 45.6634 2.86499 44.6034 2.86499 43.2959V5.41706C2.86499 4.10968 3.92486 3.0498 5.23246 3.0498H40.7437C42.0512 3.0498 43.1112 4.10968 43.1112 5.41706V29.0914" stroke="#191919" stroke-linecap="round" stroke-linejoin="round"/>
<path d="M46.6143 32.6895L31.7468 47.557L38.8491 54.6615L53.7166 39.794L46.6143 32.6895Z" fill="#FFEF5E"/>
<path d="M31.7473 47.5566L38.8495 54.6589L28.9062 57.4996L31.7473 47.5566Z" fill="#FFBC44"/>
<path d="M55.8468 37.6612L53.716 39.792L46.6138 32.6897L48.7445 30.559C51.478 27.8252 56.1458 29.0762 57.1463 32.8102C57.611 34.5435 57.1153 36.3927 55.8468 37.6612Z" fill="#FF808C"/>
<path d="M15.8862 12.5195H32.458" stroke="#191919" stroke-linecap="round" stroke-linejoin="round"/>
<path d="M11.1511 19.6211H32.458" stroke="#191919" stroke-linecap="round" stroke-linejoin="round"/>
<path d="M11.1511 26.7236H32.458" stroke="#191919" stroke-linecap="round" stroke-linejoin="round"/>
<path d="M11.1511 33.8262H26.5395" stroke="#191919" stroke-linecap="round" stroke-linejoin="round"/>
<path d="M46.6143 32.6895L31.7468 47.557L38.8491 54.6615L53.7166 39.794L46.6143 32.6895Z" stroke="#191919" stroke-linecap="round" stroke-linejoin="round"/>
<path d="M31.7473 47.5566L38.8495 54.6589L28.9062 57.4996L31.7473 47.5566Z" stroke="#191919" stroke-linecap="round" stroke-linejoin="round"/>
<path d="M55.8468 37.6612L53.716 39.792L46.6138 32.6897L48.7445 30.559C51.478 27.8252 56.1458 29.0762 57.1463 32.8102C57.611 34.5435 57.1153 36.3927 55.8468 37.6612Z" stroke="#191919" stroke-linecap="round" stroke-linejoin="round"/>
</svg>
