<svg width="60" height="60" viewBox="0 0 60 60" fill="none" xmlns="http://www.w3.org/2000/svg">
<path d="M4.8913 15.6523C4.25707 15.6523 3.64885 15.9043 3.2004 16.3527C2.75195 16.8012 2.5 17.4094 2.5 18.0437V56.3044C2.5 56.6217 2.62597 56.9257 2.8502 57.1502C3.07442 57.3742 3.37855 57.5002 3.69565 57.5002H35.9782V18.0437C35.9782 17.4094 35.7262 16.8012 35.2777 16.3527C34.8295 15.9043 34.2212 15.6523 33.587 15.6523H4.8913Z" fill="#E3E3E3"/>
<path d="M33.587 15.6523H4.8913C4.25707 15.6523 3.64885 15.9043 3.2004 16.3527C2.75195 16.8012 2.5 17.4094 2.5 18.0437V24.0219C2.5 23.3877 2.75195 22.7795 3.2004 22.331C3.64885 21.8826 4.25707 21.6306 4.8913 21.6306H33.587C34.2212 21.6306 34.8295 21.8826 35.2777 22.331C35.7262 22.7795 35.9782 23.3877 35.9782 24.0219V18.0437C35.9782 17.4094 35.7262 16.8012 35.2777 16.3527C34.8295 15.9043 34.2212 15.6523 33.587 15.6523Z" fill="white"/>
<path d="M9.67407 33.5869H28.8045" stroke="#191919" stroke-linecap="round" stroke-linejoin="round"/>
<path d="M9.67407 26.4131H28.8045" stroke="#191919" stroke-linecap="round" stroke-linejoin="round"/>
<path d="M9.67407 40.7607H19.2393" stroke="#191919" stroke-linecap="round" stroke-linejoin="round"/>
<path d="M9.67407 47.9346H19.2393" stroke="#191919" stroke-linecap="round" stroke-linejoin="round"/>
<path d="M24.0222 56.3041C24.0222 56.6211 24.1482 56.9254 24.3724 57.1496C24.5966 57.3736 24.9007 57.4996 25.2177 57.4996H56.3047C56.622 57.4996 56.926 57.3736 57.1505 57.1496C57.3745 56.9254 57.5005 56.6211 57.5005 56.3041V40.7606C57.5005 40.1264 57.2485 39.5181 56.8 39.0696C56.3517 38.6214 55.7432 38.3691 55.1092 38.3691H26.4135C25.7792 38.3691 25.171 38.6214 24.7226 39.0696C24.2742 39.5181 24.0222 40.1264 24.0222 40.7606V56.3041Z" fill="#E3E3E3"/>
<path d="M55.1092 38.3691H26.4135C25.7792 38.3691 25.171 38.6214 24.7226 39.0696C24.2742 39.5181 24.0222 40.1264 24.0222 40.7606V45.5431C24.0222 44.9089 24.2742 44.3006 24.7226 43.8521C25.171 43.4039 25.7792 43.1519 26.4135 43.1519H55.1092C55.7432 43.1519 56.3517 43.4039 56.8 43.8521C57.2485 44.3006 57.5005 44.9089 57.5005 45.5431V40.7606C57.5005 40.1264 57.2485 39.5181 56.8 39.0696C56.3517 38.6214 55.7432 38.3691 55.1092 38.3691Z" fill="white"/>
<path d="M24.0222 56.3041C24.0222 56.6211 24.1482 56.9254 24.3724 57.1496C24.5966 57.3736 24.9007 57.4996 25.2177 57.4996H56.3047C56.622 57.4996 56.926 57.3736 57.1505 57.1496C57.3745 56.9254 57.5005 56.6211 57.5005 56.3041V40.7606C57.5005 40.1264 57.2485 39.5181 56.8 39.0696C56.3517 38.6214 55.7432 38.3691 55.1092 38.3691H26.4135C25.7792 38.3691 25.171 38.6214 24.7226 39.0696C24.2742 39.5181 24.0222 40.1264 24.0222 40.7606V56.3041Z" stroke="#191919" stroke-linecap="round" stroke-linejoin="round"/>
<path d="M4.8913 15.6523C4.25707 15.6523 3.64885 15.9043 3.2004 16.3527C2.75195 16.8012 2.5 17.4094 2.5 18.0437V56.3044C2.5 56.6217 2.62597 56.9257 2.8502 57.1502C3.07442 57.3742 3.37855 57.5002 3.69565 57.5002H19.2391" stroke="#191919" stroke-linecap="round" stroke-linejoin="round"/>
<path d="M35.9777 33.5872V18.0437C35.9777 17.4094 35.7257 16.8012 35.2772 16.3527C34.8289 15.9043 34.2204 15.6523 33.5864 15.6523" stroke="#191919" stroke-linecap="round" stroke-linejoin="round"/>
<path d="M43.1516 52.7168H38.3691V57.4995H43.1516V52.7168Z" fill="#66E1FF" stroke="#191919" stroke-linecap="round" stroke-linejoin="round"/>
<path d="M28.8049 47.9346H31.1962" stroke="#191919" stroke-linecap="round" stroke-linejoin="round"/>
<path d="M31.1962 43.1523H28.8049" stroke="#191919" stroke-linecap="round" stroke-linejoin="round"/>
<path d="M35.9778 47.9346H38.369" stroke="#191919" stroke-linecap="round" stroke-linejoin="round"/>
<path d="M38.369 43.1523H35.9778" stroke="#191919" stroke-linecap="round" stroke-linejoin="round"/>
<path d="M43.1519 47.9346H45.5434" stroke="#191919" stroke-linecap="round" stroke-linejoin="round"/>
<path d="M45.5434 43.1523H43.1519" stroke="#191919" stroke-linecap="round" stroke-linejoin="round"/>
<path d="M50.3259 47.9346H52.7172" stroke="#191919" stroke-linecap="round" stroke-linejoin="round"/>
<path d="M52.7172 43.1523H50.3259" stroke="#191919" stroke-linecap="round" stroke-linejoin="round"/>
<path d="M19.2393 21.6304C24.522 21.6304 28.8045 17.3479 28.8045 12.0652C28.8045 6.7825 24.522 2.5 19.2393 2.5C13.9566 2.5 9.67407 6.7825 9.67407 12.0652C9.67407 17.3479 13.9566 21.6304 19.2393 21.6304Z" fill="#FF808C"/>
<path d="M19.2384 2.50002C17.3237 2.49587 15.4519 3.0678 13.8665 4.14142C12.281 5.21507 11.0552 6.7408 10.3483 8.52032C9.64137 10.2998 9.48609 12.2508 9.90262 14.1198C10.3191 15.9887 11.2882 17.6891 12.6839 19L26.1732 5.51067C25.2847 4.5613 24.2107 3.80427 23.0179 3.28645C21.8251 2.7686 20.5388 2.50095 19.2384 2.50002Z" fill="#FFBFC5"/>
<path d="M19.2393 21.6304C24.522 21.6304 28.8045 17.3479 28.8045 12.0652C28.8045 6.7825 24.522 2.5 19.2393 2.5C13.9566 2.5 9.67407 6.7825 9.67407 12.0652C9.67407 17.3479 13.9566 21.6304 19.2393 21.6304Z" stroke="#191919" stroke-linecap="round" stroke-linejoin="round"/>
<path d="M19.2395 7.28223V16.8474" stroke="#191919" stroke-linecap="round" stroke-linejoin="round"/>
<path d="M24.022 12.0654H14.4568" stroke="#191919" stroke-linecap="round" stroke-linejoin="round"/>
</svg>
