<svg width="60" height="60" viewBox="0 0 60 60" fill="none" xmlns="http://www.w3.org/2000/svg">
<path d="M30 57.5C45.188 57.5 57.5 45.188 57.5 30C57.5 14.8122 45.188 2.5 30 2.5C14.8122 2.5 2.5 14.8122 2.5 30C2.5 45.188 14.8122 57.5 30 57.5Z" fill="#FFEF5E"/>
<path d="M30 12.0652C35.941 12.0657 41.7435 13.86 46.6478 17.2133C51.552 20.5665 55.3295 25.3223 57.4858 30.8585C57.4858 30.5715 57.5 30.287 57.5 30C57.5 22.7066 54.6027 15.7118 49.4452 10.5546C44.2882 5.3973 37.2935 2.5 30 2.5C22.7066 2.5 15.7118 5.3973 10.5546 10.5546C5.3973 15.7118 2.5 22.7066 2.5 30C2.5 30.287 2.5 30.5715 2.51435 30.8585C4.6705 25.3223 8.44798 20.5665 13.3522 17.2133C18.2564 13.86 24.059 12.0657 30 12.0652Z" fill="#FFF9BF"/>
<path d="M30 57.5C45.188 57.5 57.5 45.188 57.5 30C57.5 14.8122 45.188 2.5 30 2.5C14.8122 2.5 2.5 14.8122 2.5 30C2.5 45.188 14.8122 57.5 30 57.5Z" stroke="#191919" stroke-linecap="round" stroke-linejoin="round"/>
<path d="M16.8466 25.8149C16.5164 25.8149 16.2488 25.5471 16.2488 25.2169C16.2488 24.8868 16.5164 24.6191 16.8466 24.6191" stroke="#191919"/>
<path d="M16.8481 25.8149C17.1783 25.8149 17.446 25.5471 17.446 25.2169C17.446 24.8868 17.1783 24.6191 16.8481 24.6191" stroke="#191919"/>
<path d="M43.1515 25.8149C42.8212 25.8149 42.5537 25.5471 42.5537 25.2169C42.5537 24.8868 42.8212 24.6191 43.1515 24.6191" stroke="#191919"/>
<path d="M43.1506 25.8149C43.4806 25.8149 43.7484 25.5471 43.7484 25.2169C43.7484 24.8868 43.4806 24.6191 43.1506 24.6191" stroke="#191919"/>
<path d="M39.2615 38.3691C39.6265 38.3686 39.9868 38.4516 40.3148 38.6119C40.643 38.7721 40.9298 39.0056 41.1538 39.2936C41.3775 39.5821 41.5325 39.9179 41.6065 40.2754C41.6808 40.6329 41.6718 41.0026 41.581 41.3559C40.9213 43.9264 39.4253 46.2041 37.3285 47.8306C35.2318 49.4569 32.6535 50.3399 30 50.3399C27.3463 50.3399 24.7681 49.4569 22.6714 47.8306C20.5746 46.2041 19.0786 43.9264 18.4188 41.3559C18.3279 41.0026 18.3192 40.6329 18.3933 40.2754C18.4673 39.9179 18.6223 39.5821 18.8462 39.2936C19.0701 39.0056 19.357 38.7721 19.685 38.6119C20.013 38.4516 20.3733 38.3686 20.7384 38.3691H39.2615Z" fill="#FF808C" stroke="#191919" stroke-linecap="round" stroke-linejoin="round"/>
</svg>
